<svg width="220" height="220" viewBox="0 0 220 220" fill="none" xmlns="http://www.w3.org/2000/svg" role="img" aria-labelledby="title desc">
  <title id="title">GeldPsychologie logo</title>
  <desc id="desc">Een boom als symbool voor groei en lange termijn financiële ontwikkeling.</desc>
  <rect width="220" height="220" rx="36" fill="#0B1220"/>
  <circle cx="110" cy="108" r="62" fill="url(#canopy)"/>
  <path d="M109.5 154C95.4167 154 84 142.583 84 128.5C84 114.417 95.4167 103 109.5 103C123.583 103 135 114.417 135 128.5C135 142.583 123.583 154 109.5 154Z" fill="#0B1220" fill-opacity="0.24"/>
  <path d="M111 70C89.8 70 72 86.9 68.3 107.2C66.7 116.2 68.3 125.5 72.9 133.4C79.8 145.3 92.6 153 107.2 153H111H112.8C127.4 153 140.2 145.3 147.1 133.4C151.7 125.5 153.3 116.2 151.7 107.2C148 86.9 130.2 70 109 70H111Z" fill="#34D399" fill-opacity="0.23"/>
  <path d="M108 57C108 54.7909 109.791 53 112 53C114.209 53 116 54.7909 116 57V111L138.2 89.1C139.8 87.5 142.3 87.5 143.9 89.1C145.5 90.7 145.5 93.2 143.9 94.8L118 120.7V168C118 170.209 116.209 172 114 172C111.791 172 110 170.209 110 168V121.2L84.8 95.9C83.2 94.3 83.2 91.8 84.8 90.2C86.4 88.6 88.9 88.6 90.5 90.2L108 107.7V57Z" fill="#A78BFA"/>
  <circle cx="110" cy="110" r="92" stroke="#60A5FA" stroke-opacity="0.5" stroke-width="2"/>
  <defs>
    <linearGradient id="canopy" x1="65" y1="64" x2="156" y2="165" gradientUnits="userSpaceOnUse">
      <stop stop-color="#60A5FA"/>
      <stop offset="1" stop-color="#A78BFA"/>
    </linearGradient>
  </defs>
</svg>
